<svg width="137" height="137" viewBox="0 0 137 137" fill="none" xmlns="http://www.w3.org/2000/svg">
<rect width="136.338" height="136.338" rx="30" fill="#471CFF"/>
<path d="M109.796 99.6507L98.1576 105.129L98.0278 104.824C94.1985 96.0316 88.938 97.7298 80.9754 100.305C77.9283 101.291 74.468 102.407 70.5806 103.092C68.7701 103.41 67.028 103.616 65.2756 103.694C65.0877 103.708 64.893 103.715 64.6949 103.722C64.5002 103.729 64.3123 103.736 64.1142 103.736H63.9776C63.718 103.749 63.4481 103.749 63.1885 103.749C42.9797 103.749 26.5421 87.475 26.5421 67.4755C26.5421 47.4726 42.9797 31.2087 63.1885 31.2087C83.3973 31.2087 99.8349 47.4761 99.8349 67.4755C99.8349 71.3652 99.22 75.1932 97.9971 78.8432L97.9117 79.0965L97.6657 78.987C93.1703 76.9702 88.4461 77.7098 82.7414 79.4424L82.1607 79.617L82.451 79.0863C84.3981 75.5459 85.4264 71.4987 85.4264 67.3831C85.4264 54.485 75.4381 43.987 63.1611 43.987C50.8842 43.987 40.8959 54.485 40.8959 67.3831C40.8959 80.2881 50.8842 90.7894 63.1611 90.7894H63.595C69.1015 90.7449 74.1776 89.0911 79.0829 87.4887C84.6339 85.6809 89.8739 83.9689 94.892 84.9858C99.1346 85.8486 102.824 88.6118 106.175 93.4396C107.364 95.1447 108.535 97.1341 109.642 99.3528L109.796 99.6507Z" fill="white"/>
</svg>
